<svg xmlns="http://www.w3.org/2000/svg" viewBox="0 0 48 48" width="32" height="32">
  <path fill="#48B" d="M37.5 33.5c-4.2 4.2-10.8 4.6-15.5 1-3.6-2.8-5.7-7.3-5.9-11.9.8 4 3.2 7.6 6.5 9.8 4.5 3.1 10.1 2.3 13.8-1.4 3.9-3.9 4.6-9.9 1.6-14.4-2.2-3.3-6-5.5-10-6.1.6-4.8 4.2-8.7 8.9-9.8 5.1-1.2 10.3 1.2 13.5 5.5 3.6 4.8 3.5 11.3.1 16.3-3.8 5.6-10.1 8.4-16.5 8.1z"/>
  <path fill="#9CF" d="M12.4 12.3C16.4 8.2 22.8 8 27.5 12c3.5 3 5.3 7.5 5 12-.9-4.2-3.6-7.8-7.2-9.7-4.8-2.5-10.3-1.5-14 2.3-3.9 3.9-4.8 9.9-2 14.5 2.1 3.4 5.7 5.7 9.8 6.2-.5 4.9-4.2 8.9-9.1 10-5.1 1.2-10.5-1-13.7-5.5s-3-11 .3-16c3.6-5.3 9.9-8.3 16.2-8z"/>
</svg>
